<?xml version="1.0" encoding="utf-8"?>
<!-- Generator: Adobe Illustrator 23.0.1, SVG Export Plug-In . SVG Version: 6.00 Build 0)  -->
<svg version="1.1" id="Capa_1" xmlns="http://www.w3.org/2000/svg" xmlns:xlink="http://www.w3.org/1999/xlink" x="0px" y="0px"
	 viewBox="0 0 688 599.3" style="enable-background:new 0 0 688 599.3;" xml:space="preserve">
<style type="text/css">
	.st0{fill:#FFFFFF;}
</style>
<g>
	<path class="st0" d="M49.9,436.2c0.9-3.8,3.3-6.8,5.2-10c11.6-19.5,23.5-38.9,34.9-58.6c10.9-18.6,17.8-38.8,21.4-60.1
		c1.6-9.4,2.4-18.9,2.4-28.5c0-18.7,0-37.4,0.1-56c0.1-21.8,4.8-42.6,14.2-62.2c15-31.3,38.1-54.7,69.1-70.3
		c7.1-3.6,14.6-6.5,22.2-8.8c0.8-0.3,1.1-0.6,1.1-1.5c0-12.4,0-24.8,0-37.2c0-19.7,13.7-37,32.8-41.5c22.8-5.4,45.6,8.4,51.2,31.2
		c0.8,3.3,1.2,6.8,1.2,10.2c0.1,12.4,0.1,24.7,0,37.1c0,1.1,0.4,1.5,1.4,1.8c22.5,7,42.3,18.6,59.3,34.9
		c21.5,20.6,35.6,45.4,42.4,74.4c0.9,3.9,1.5,7.9,2.2,11.9c0,0.2,0,0.4,0,0.6c-33.6,1.7-63,13.5-88,36c-18.5,16.7-31.5,37-39,60.7
		c-8.4,26.6-8.8,53.4-1.2,80.3c7.6,26.9,22.4,49.2,43.6,67.8c-0.7,0-1.2,0-1.6,0c-88,0-176.1,0-264.1,0c-5.4,0-9.6-3.5-10.7-8.8
		c0-0.2-0.2-0.4-0.2-0.7C49.9,437.9,49.9,437,49.9,436.2z"/>
	<path class="st0" d="M258.9,512.2c-1.9-0.2-3.8-0.4-5.7-0.7c-14.6-2-27.4-7.9-38.5-17.5c-7.7-6.7-13.8-14.6-18.3-23.8
		c-0.1-0.2-0.1-0.4-0.3-0.7c44.7,0,89.4,0,134.2,0c-0.4,0.7-0.7,1.5-1,2.2c-11.4,21-28.7,34.2-52.2,39.1c-2.8,0.6-5.6,0.7-8.4,1.1
		c-0.4,0.1-0.8,0.2-1.1,0.2C264.7,512.2,261.8,512.2,258.9,512.2z"/>
</g>
<ellipse class="st0" cx="484.8" cy="373.4" rx="171.2" ry="170.4"/>
</svg>
